<?xml version="1.0" encoding="utf-8"?>
<!-- Generator: Adobe Illustrator 25.4.1, SVG Export Plug-In . SVG Version: 6.00 Build 0)  -->
<svg version="1.1" id="Layer_1" xmlns="http://www.w3.org/2000/svg" xmlns:xlink="http://www.w3.org/1999/xlink" x="0px" y="0px"
	 viewBox="0 0 283.2 316.5" style="enable-background:new 0 0 283.2 316.5;" xml:space="preserve">
<style type="text/css">
	.st0{display:none;fill:#0D0E1B;}
	.st1{display:none;}
	.st2{display:inline;}
	.st3{fill:#006382;}
	.st4{fill:#E5E3F1;stroke:#00AEEF;stroke-width:28;stroke-linejoin:round;stroke-miterlimit:10;}
	.st5{display:none;fill:#E5E3F1;stroke:#00AEEF;stroke-width:28;stroke-linejoin:round;stroke-miterlimit:10;}
	.st6{display:none;fill:none;stroke:#6D63AC;stroke-width:28;stroke-linejoin:round;stroke-miterlimit:10;}
	.st7{display:none;opacity:0.1;}
	.st8{display:inline;fill:#FFFFFF;}
	.st9{display:inline;fill:#6D63AC;}
	.st10{display:none;fill:#6D63AC;stroke:#0E0F1C;stroke-width:8;stroke-linejoin:round;stroke-miterlimit:10;}
	.st11{display:none;fill:none;stroke:#0E0F1C;stroke-width:8;stroke-linejoin:round;stroke-miterlimit:10;}
	.st12{fill:none;stroke:#0D0E1B;stroke-width:18;stroke-linejoin:round;stroke-miterlimit:10;}
	.st13{fill:none;stroke:#0D0E1B;stroke-width:18;stroke-linecap:round;stroke-linejoin:round;stroke-miterlimit:10;}
	.st14{fill:#00AEEF;}
</style>
<rect x="-152.3" y="-265.4" class="st0" width="595.5" height="842.3"/>
<g id="Logo" class="st1">
	<g class="st2">
		<polygon class="st3" points="-13.2,68.3 141.9,-21.2 296.9,68.3 296.9,247.3 141.9,336.8 -13.2,247.3 		"/>
		<polygon class="st4" points="-13.2,68.3 141.9,-21.2 296.9,68.3 296.9,247.3 141.9,336.8 -13.2,247.3 		"/>
		<polygon class="st5" points="-13.2,68.3 141.9,-21.2 296.9,68.3 296.9,247.3 141.9,336.8 -13.2,247.3 		"/>
		<polygon class="st6" points="141.9,157 -13.2,68.3 141.9,-21.2 		"/>
		<polygon class="st6" points="141.9,336.8 -13.2,247.3 141.9,157 		"/>
		<polygon class="st5" points="296.9,247.3 141.9,157 296.9,68.3 		"/>
		<line class="st5" x1="141.9" y1="-21.2" x2="141.9" y2="336.8"/>
	</g>
	<g class="st2">
		<g class="st7">
			<polygon class="st8" points="296.9,68.3 141.9,157 141.9,-21.2 			"/>
			<polygon class="st8" points="141.9,157.8 -13.2,246.5 -13.2,68.3 			"/>
			<polygon class="st8" points="296.9,247.3 141.9,336.8 141.9,157 			"/>
			<polygon class="st9" points="-13.2,68.3 141.9,-21.2 141.9,157 			"/>
			<polygon class="st9" points="296.9,68.3 141.9,157 296.9,247.3 			"/>
			<polygon class="st9" points="141.9,336.8 141.9,157 -13.2,247.3 			"/>
		</g>
		<polygon class="st10" points="-13.2,68.3 141.9,-21.2 296.9,68.3 296.9,247.3 141.9,336.8 -13.2,247.3 		"/>
		<polygon class="st11" points="-13.2,68.3 141.9,-21.2 296.9,68.3 296.9,247.3 141.9,336.8 -13.2,247.3 		"/>
		<polygon class="st11" points="-13.2,68.3 141.9,-21.2 296.9,68.3 296.9,247.3 141.9,336.8 -13.2,247.3 		"/>
		<polygon class="st11" points="141.9,157 -13.2,68.3 141.9,-21.2 		"/>
		<polygon class="st11" points="141.9,336.8 -13.2,247.3 141.9,157 		"/>
		<polygon class="st11" points="296.9,247.3 141.9,157 296.9,68.3 		"/>
	</g>
	<g class="st2">
		<polygon class="st12" points="51.6,105.6 141.9,53.5 232.2,105.6 232.2,209.9 141.9,262.1 51.6,209.9 		"/>
		<line class="st13" x1="141.9" y1="-38.8" x2="141.9" y2="352.8"/>
		<polyline class="st13" points="312.4,59.4 141.9,157 312.4,256.3 		"/>
	</g>
</g>
<g class="st1">
	<polygon class="st8" points="151,-32.1 150.8,0 273.8,71.2 301.8,55 	"/>
	<polygon class="st8" points="132.9,347.8 132.9,315.8 0.6,239.5 0.5,76.2 132.3,0.4 132.2,-31.7 -28,60.1 -27.2,255.1 	"/>
	<polygon class="st8" points="150.9,347.8 150.9,315.3 273.9,244.4 301.8,260.6 	"/>
	<polygon class="st8" points="282.8,86.7 310.9,70.6 310.9,245 283,228.7 	"/>
</g>
<g>
	<polygon class="st3" points="241.1,110.6 282.8,86.7 283,228.7 241.3,204.5 	"/>
	<polygon class="st3" points="150.8,48.5 150.8,0 273.8,71.2 231.9,95 	"/>
	<polygon class="st3" points="150.9,267.2 150.9,315.9 273.9,244.4 232.5,220.2 	"/>
	<polygon class="st3" points="132.6,267.3 132.9,315.8 0,238.9 0.3,76.2 132.3,0.4 132.5,48.1 42.5,100.6 42.5,215 	"/>
</g>
<g>
	<polygon class="st14" points="150.9,172.7 150.9,246.5 214.5,209.8 	"/>
	<path class="st14" d="M132.7,69.2l0.1,177.1l-72.3-41.5c-0.1-31.3-0.1-62.6-0.2-93.9C84.4,97.1,108.6,83,132.7,69.2z"/>
	<polygon class="st14" points="159.9,157 223.2,120.9 223.2,193.9 	"/>
	<polygon class="st14" points="150.8,69.2 214,105.4 150.8,141.5 	"/>
</g>
<g id="Guides" class="st1">
</g>
</svg>
